PathFileType	4	(X/Y/Z)	Patient4_TMGait_0pt5_02_right_31.trc.trc
DataRate	CameraRate	NumFrames	NumMarkers	Units	OrigDataRate	OrigDataStartFrame	OrigNumFrames
75.268817204301	75.268817204301	4	33	mm	75.268817204301	36	       141
Frame#	Time	Sacral			L.Shoulder			Chest			R.Shoulder			Neck			R.ASIS			L.ASIS			R.Thigh.Superior			R.Thigh.Lateral			R.Thigh.Inferior			R.Patella			L.Thigh.Superior			L.Thigh.Lateral			L.Thigh.Inferior			L.Patella			L.Shank.Superior			L.Shank.Lateral			L.Shank.Inferior			R.Shank.Superior			R.Shank.Lateral			R.Shank.Inferior			R.Heel			R.Midfoot.Superior			R.Midfoot.Lateral			R.Toe			L.Heel			L.Midfoot.Lateral			L.Midfoot.Superior			L.Toe			L.Elbow			L.Wrist			R.Elbow			R.Wrist			
		X1	Y1	Z1	X2	Y2	Z2	X3	Y3	Z3	X4	Y4	Z4	X5	Y5	Z5	X6	Y6	Z6	X7	Y7	Z7	X8	Y8	Z8	X9	Y9	Z9	X10	Y10	Z10	X11	Y11	Z11	X12	Y12	Z12	X13	Y13	Z13	X14	Y14	Z14	X15	Y15	Z15	X16	Y16	Z16	X17	Y17	Z17	X18	Y18	Z18	X19	Y19	Z19	X20	Y20	Z20	X21	Y21	Z21	X22	Y22	Z22	X23	Y23	Z23	X24	Y24	Z24	X25	Y25	Z25	X26	Y26	Z26	X27	Y27	Z27	X28	Y28	Z28	X29	Y29	Z29	X30	Y30	Z30	X31	Y31	Z31	X32	Y32	Z32	X33	Y33	Z33	

36	40.955000000000	692.816419307060	1004.548773281771	464.195120273925	872.872536719520	1421.331537961312	271.336667894118	964.646575563092	1363.790354230726	443.335785174263	866.971159929543	1446.160878915766	606.869479730384	860.645250547108	1491.749674167685	418.215714565100	914.542967398526	939.107485436517	590.760613569836	913.105697356172	959.130706168699	316.087526461236	977.191952086985	750.074828300429	557.114302548074	909.835853421741	633.367903177895	618.305056390507	992.885595805873	588.425142428348	537.898160618672	1006.562442246216	497.180761961630	546.091533870572	918.082635981221	733.012399498842	338.021236790427	803.407332704348	636.181714826367	276.333999681038	870.242603307304	540.767820050991	333.922532391393	855.268644750587	463.875978092243	335.359809106365	801.580563316711	404.843024307662	330.219294513546	674.681593421647	328.275565527988	284.608973170109	692.134026490314	201.799351012745	347.211966897646	978.811435978475	408.026031585025	553.886003188210	910.800126592639	303.653301302095	616.930112981343	954.550754088613	208.824324723451	556.508070808201	825.096595833831	43.174434742229	529.414388175289	994.887521691651	97.925877165985	565.537062405450	907.611553016154	37.138964819077	605.136797186660	1115.546831812702	45.660849113893	596.330924393146	526.052312452995	78.982206716400	391.509945625358	597.829804314521	53.136710851743	314.431480939159	691.445930244324	101.548123271771	334.916773385478	805.987789301763	37.031291106768	315.680074338138	884.032647989556	1062.954324677686	162.442365284043	1067.145207912704	876.601191662739	144.645583323567	751.381140960624	1132.280989919987	742.071672118888	797.086867375162	874.811269493225	760.884702183203	
37	40.968285714286	693.788338174336	1005.344358104791	467.587742084177	873.172473398900	1422.275234971505	274.324113665031	965.805714275910	1364.492278321559	445.777005964432	868.970187212844	1446.601887055602	609.880723015890	861.595151142557	1492.448745052863	421.366297930925	915.982001577595	939.733695338324	593.268986468632	913.312955978004	959.568685723781	318.779722826636	977.059321223183	749.335933929860	560.234683758165	907.714277890007	633.096793741423	620.299810114284	990.790207385828	587.728855480776	540.214590270170	1003.393042807360	496.431974574661	547.502126045437	921.341264296115	733.962793184610	339.984192716267	808.580179360262	635.695891620241	277.780544276683	877.774695226252	540.704490949891	334.338047009899	863.125350662812	462.605657240316	334.539109073823	807.163591715921	404.193144583423	329.844262565758	677.691585809397	331.631907475413	284.944778630675	691.916009905362	204.253670236786	346.273158372874	975.081383124389	407.483496491296	554.936875301817	906.446824084120	303.426010723968	617.731325468372	949.231565093674	208.485781321643	556.859554845587	818.525929210051	43.297351738407	529.454075913819	988.473583222578	97.777251484543	565.680068356754	901.017739790485	37.121617363775	605.192241507780	1109.051817986316	45.030478053237	596.505811651452	522.315900359017	87.059943182321	390.600666116865	592.928987724236	57.571974019600	313.918786327630	688.269491488464	102.796948215992	333.634575563625	799.633059200433	36.623362561291	315.706566579741	881.734662632110	1063.527918325840	166.514613555699	1053.117369774377	866.549114005701	148.221406035849	757.780093496085	1131.215691986927	746.052381795040	816.326645079754	876.166491417565	760.562988941042	
38	40.981571428571	694.627587918031	1005.980420198259	470.951158705253	873.304861638389	1423.028171911569	277.275197596965	966.865297606152	1365.036627562801	448.167749493898	870.931301172129	1446.919277757186	612.854972495709	862.449818606843	1492.994794540649	424.477770267406	917.297258082586	940.187417738775	595.752682446857	913.355471311423	959.860320612242	321.494594955301	976.778289890503	748.478370379581	563.221992413335	905.553039504399	632.788599589205	622.267540374189	988.564635807153	586.968668965320	542.427758565026	1000.084862989031	495.649885222961	548.913291654106	924.958490443668	734.946827568297	341.916075934802	814.619402719289	635.043775076956	279.075126052530	886.328304252579	540.661758553532	334.718983941352	872.093076236233	461.333204213646	333.725669614405	813.835566761740	403.525126870265	329.413823801452	681.880130813674	335.251706536107	285.103135637106	692.566906642768	207.136952811317	345.229401999411	971.234140464705	406.891868597747	556.007238454719	901.968569489263	303.139594532283	618.547093454700	943.846450715899	208.104677782653	557.217408910223	811.898046198364	43.400444581727	529.483074661588	982.008704332673	97.608925188131	565.786253275279	894.371643094305	37.084992585588	605.237197331132	1102.501526303892	44.376982255635	596.635160901070	519.372214807284	96.463554152395	389.490281717792	588.508383575643	63.056758806992	313.258405020769	685.594294108679	104.438328818744	332.303927930744	793.221478951002	36.092643139659	315.732234657190	879.423074387603	1063.988879533139	170.474677824136	1038.286631740515	857.029098561865	151.893965607457	764.194775072311	1130.240020275599	750.201397805998	836.124959896372	878.567190720248	760.285512857429	
39	40.994857142857	695.310586259608	1006.438652477607	474.260949641364	873.290274407805	1423.583202598891	280.159828432354	967.811599857190	1365.402197195101	450.489400176129	872.822961159050	1447.098181527458	615.762627061007	863.215011523386	1493.378397308468	427.517476252783	918.462227446276	940.473543487638	598.198840066632	913.221424471136	960.002065091630	324.191891977504	976.366855956537	747.563016922881	565.977045342954	903.476955520328	632.472977585573	624.190627429311	986.287198681625	586.173376399931	544.475519485061	996.716211080110	494.839697116997	550.299145998834	928.883588558922	736.006284305783	343.846949497168	821.523022851652	634.281398673744	280.245254086051	895.838008809155	540.728825597623	335.170285618841	882.123860968713	460.159841202099	333.060490290587	821.594576332844	402.905674747061	329.022239359693	687.297441123241	339.179282057348	285.112452937529	694.137518635286	210.522216891077	344.135164532880	967.331860880369	406.257554720538	557.082990829839	897.426093570242	302.814654205797	619.385031873377	938.431110132845	207.689893552535	557.583822631458	805.236388276172	43.486991212907	529.519153015435	975.510439901811	97.438120061815	565.876892780567	887.695810267855	37.039822704669	605.290447644893	1095.912525974442	43.746289725402	596.741173095156	517.364263276177	107.304445000875	388.177591551817	584.685237688502	69.756327437138	312.443733299487	683.469388941683	106.606031638243	330.966944657823	786.755693470723	35.387542449371	315.746301574954	876.977108231404	1064.304875222403	174.327130961047	1022.751744649659	848.181128456819	155.663255278532	770.698692373891	1129.302796098846	754.496861384206	856.370461193840	882.041064434491	760.013684771904	
